<?xml version="1.0" standalone="no"?>
<!DOCTYPE svg PUBLIC "-//W3C//DTD SVG 20010904//EN"
 "http://www.w3.org/TR/2001/REC-SVG-20010904/DTD/svg10.dtd">
<svg version="1.0" xmlns="http://www.w3.org/2000/svg"
 width="259.000000pt" height="194.000000pt" viewBox="0 0 259.000000 194.000000"
 preserveAspectRatio="xMidYMid meet">

<g transform="translate(0.000000,194.000000) scale(0.100000,-0.100000)"
fill="#000000" stroke="none">
<path d="M1233 1474 c-5 -14 1 -141 24 -468 l6 -88 -22 12 c-31 16 -46 54 -87
225 -31 129 -40 154 -65 178 -16 15 -38 27 -48 27 -44 0 -42 -18 29 -291 39
-145 70 -265 70 -266 0 -1 23 -6 51 -12 87 -19 149 -51 180 -94 86 -118 -22
-256 -166 -213 -44 13 -47 13 -30 0 28 -21 91 -36 148 -36 112 1 215 67 257
164 17 39 25 82 30 164 7 108 9 116 59 223 45 93 51 115 44 138 -6 16 -18 29
-30 31 -16 2 -34 -19 -89 -107 -38 -61 -72 -111 -76 -111 -4 0 -10 16 -14 35
-4 25 4 67 31 157 49 158 55 218 25 248 -41 41 -50 27 -108 -170 -30 -102 -56
-187 -58 -189 -3 -3 -12 3 -21 12 -14 14 -19 48 -25 184 -9 192 -10 200 -39
236 -23 30 -66 36 -76 11z m-143 -154 c0 -5 -2 -10 -4 -10 -3 0 -8 5 -11 10
-3 6 -1 10 4 10 6 0 11 -4 11 -10z m320 -467 c81 -57 116 -121 111 -205 -2
-31 -20 -19 -27 17 -3 19 -12 39 -20 46 -8 6 -14 18 -14 26 0 13 -2 13 -17 2
-15 -13 -15 -12 0 18 20 37 21 43 7 43 -5 0 -10 -8 -10 -17 -1 -14 -8 -10 -30
16 -15 18 -26 40 -23 47 3 8 0 14 -6 14 -6 0 -11 -5 -11 -12 0 -6 -3 -9 -6 -5
-7 7 4 27 14 27 4 0 19 -8 32 -17z"/>
<path d="M1400 829 c0 -5 5 -7 10 -4 6 3 10 8 10 11 0 2 -4 4 -10 4 -5 0 -10
-5 -10 -11z"/>
<path d="M1460 766 c0 -2 7 -9 15 -16 13 -11 14 -10 9 4 -5 14 -24 23 -24 12z"/>
</g>
</svg>
